<svg width="6" height="7" viewBox="0 0 6 7" fill="none" xmlns="http://www.w3.org/2000/svg">
<path d="M0.7 7V6.22C1.33333 5.76667 1.86333 5.36667 2.29 5.02C2.72333 4.67333 3.07 4.35333 3.33 4.06C3.59 3.76667 3.77667 3.49 3.89 3.23C4.01 2.96333 4.07 2.69333 4.07 2.42C4.07 2.06667 3.96 1.78 3.74 1.56C3.52 1.34 3.21333 1.23 2.82 1.23C2.40667 1.23 2.07667 1.37 1.83 1.65C1.59 1.92333 1.45333 2.3 1.42 2.78L0.49 2.35C0.536667 1.93 0.66 1.56667 0.86 1.26C1.06 0.953333 1.33 0.716666 1.67 0.55C2.01667 0.383333 2.41667 0.3 2.87 0.3C3.24333 0.3 3.57 0.353333 3.85 0.46C4.13667 0.566666 4.37667 0.716666 4.57 0.91C4.76333 1.09667 4.91 1.31667 5.01 1.57C5.11667 1.82333 5.17 2.09333 5.17 2.38C5.17 2.8 5.06667 3.20667 4.86 3.6C4.65333 3.98667 4.32667 4.38333 3.88 4.79C3.43333 5.19667 2.84667 5.63333 2.12 6.1V6.12C2.2 6.10667 2.31 6.1 2.45 6.1C2.59 6.09333 2.73 6.09 2.87 6.09C3.01 6.08333 3.12333 6.08 3.21 6.08H5.29V7H0.7Z" fill="#F6F6F6"/>
</svg>
