<svg width="16" height="16" viewBox="0 0 16 16" fill="none" xmlns="http://www.w3.org/2000/svg">
<path d="M7.99995 2C8.2761 2 8.49995 2.22386 8.49995 2.5V6.33333H10.1636C11.1761 6.33333 11.9969 7.15414 11.9969 8.16667V12.2944L13.1466 11.1462C13.342 10.9511 13.6586 10.9513 13.8537 11.1467C14.0489 11.3421 14.0487 11.6587 13.8533 11.8538L11.8502 13.8541C11.6549 14.0492 11.3385 14.0491 11.1434 13.8539L9.14302 11.8536C8.94775 11.6583 8.94775 11.3417 9.14302 11.1464C9.33828 10.9512 9.65486 10.9512 9.85012 11.1464L10.9969 12.2932V8.16667C10.9969 7.70643 10.6238 7.33333 10.1636 7.33333H5.83322C5.37298 7.33333 4.99989 7.70643 4.99989 8.16667V12.2932L6.14667 11.1464C6.34193 10.9512 6.65852 10.9512 6.85378 11.1464C7.04904 11.3417 7.04904 11.6583 6.85378 11.8536L4.85344 13.8539C4.65818 14.0492 4.3416 14.0492 4.14634 13.8539L2.14596 11.8536C1.9507 11.6583 1.95069 11.3417 2.14595 11.1465C2.34122 10.9512 2.6578 10.9512 2.85306 11.1464L3.99989 12.2932V8.16667C3.99989 7.15414 4.8207 6.33333 5.83322 6.33333H7.49995V2.5C7.49995 2.22386 7.72381 2 7.99995 2Z" fill="white"/>
</svg>
