<svg width="14" height="14" viewBox="0 0 14 14" fill="none" xmlns="http://www.w3.org/2000/svg">
<path fill-rule="evenodd" clip-rule="evenodd" d="M13.4732 13.4733C13.2132 13.7333 12.7866 13.7333 12.5266 13.4733L10.3666 11.3067C10.7132 11.0267 11.0266 10.7133 11.3066 10.3667L13.4732 12.5267C13.7332 12.7867 13.7332 13.2133 13.4732 13.4733Z" fill="#AFAFAF"/>
<path fill-rule="evenodd" clip-rule="evenodd" d="M6.50004 11.3333C9.16942 11.3333 11.3334 9.16938 11.3334 6.5C11.3334 3.83062 9.16942 1.66667 6.50004 1.66667C3.83066 1.66667 1.66671 3.83062 1.66671 6.5C1.66671 9.16938 3.83066 11.3333 6.50004 11.3333ZM6.50004 12.6667C9.9058 12.6667 12.6667 9.90576 12.6667 6.5C12.6667 3.09424 9.9058 0.333334 6.50004 0.333334C3.09428 0.333334 0.333374 3.09424 0.333374 6.5C0.333374 9.90576 3.09428 12.6667 6.50004 12.6667Z" fill="#AFAFAF"/>
</svg>
