<svg width="32" height="32" viewBox="0 0 32 32" fill="none" xmlns="http://www.w3.org/2000/svg">
<rect width="32" height="32" fill="#EEEEEE"/>
<path d="M15.3246 9.92627C15.3759 9.65494 15.1976 9.39338 14.9263 9.34205C14.6549 9.29073 14.3934 9.46908 14.342 9.74041L13.6626 13.332L10.4998 13.3335C10.2236 13.3336 9.99987 13.5576 10 13.8337C10.0001 14.1099 10.2241 14.3336 10.5002 14.3335L13.4735 14.3321L12.843 17.6653L9.8331 17.6667C9.55696 17.6668 9.33321 17.8908 9.33333 18.1669C9.33346 18.443 9.55743 18.6668 9.83357 18.6667L12.6538 18.6653L12.0087 22.0757C11.9574 22.3471 12.1357 22.6086 12.407 22.66C12.6784 22.7113 12.9399 22.5329 12.9913 22.2616L13.6716 18.6649L17.3209 18.6632L16.6754 22.0757C16.6241 22.3471 16.8024 22.6086 17.0737 22.66C17.3451 22.7113 17.6066 22.5329 17.658 22.2616L18.3387 18.6627L21.5002 18.6612C21.7764 18.6611 22.0001 18.4371 22 18.161C21.9999 17.8848 21.7759 17.6611 21.4998 17.6612L18.5279 17.6626L19.1584 14.3294L22.1669 14.328C22.443 14.3279 22.6668 14.104 22.6667 13.8278C22.6665 13.5517 22.4426 13.3279 22.1664 13.328L19.3476 13.3294L19.9913 9.92627C20.0426 9.65494 19.8643 9.39338 19.593 9.34205C19.3216 9.29073 19.0601 9.46908 19.0087 9.74041L18.3298 13.3298L14.6805 13.3315L15.3246 9.92627ZM14.4913 14.3316L18.1406 14.3299L17.5101 17.6631L13.8608 17.6648L14.4913 14.3316Z" fill="#AFAFAF"/>
<path d="M15.3246 9.92627C15.3759 9.65494 15.1976 9.39338 14.9263 9.34205C14.6549 9.29073 14.3934 9.46908 14.342 9.74041L13.6626 13.332L10.4998 13.3335C10.2236 13.3336 9.99987 13.5576 10 13.8337C10.0001 14.1099 10.2241 14.3336 10.5002 14.3335L13.4735 14.3321L12.843 17.6653L9.8331 17.6667C9.55696 17.6668 9.33321 17.8908 9.33333 18.1669C9.33346 18.443 9.55743 18.6668 9.83357 18.6667L12.6538 18.6653L12.0087 22.0757C11.9574 22.3471 12.1357 22.6086 12.407 22.66C12.6784 22.7113 12.9399 22.5329 12.9913 22.2616L13.6716 18.6649L17.3209 18.6632L16.6754 22.0757C16.6241 22.3471 16.8024 22.6086 17.0737 22.66C17.3451 22.7113 17.6066 22.5329 17.658 22.2616L18.3387 18.6627L21.5002 18.6612C21.7764 18.6611 22.0001 18.4371 22 18.161C21.9999 17.8848 21.7759 17.6611 21.4998 17.6612L18.5279 17.6626L19.1584 14.3294L22.1669 14.328C22.443 14.3279 22.6668 14.104 22.6667 13.8278C22.6665 13.5517 22.4426 13.3279 22.1664 13.328L19.3476 13.3294L19.9913 9.92627C20.0426 9.65494 19.8643 9.39338 19.593 9.34205C19.3216 9.29073 19.0601 9.46908 19.0087 9.74041L18.3298 13.3298L14.6805 13.3315L15.3246 9.92627ZM14.4913 14.3316L18.1406 14.3299L17.5101 17.6631L13.8608 17.6648L14.4913 14.3316Z" fill="black" fill-opacity="0.7" style="mix-blend-mode:hue"/>
<path d="M15.3246 9.92627C15.3759 9.65494 15.1976 9.39338 14.9263 9.34205C14.6549 9.29073 14.3934 9.46908 14.342 9.74041L13.6626 13.332L10.4998 13.3335C10.2236 13.3336 9.99987 13.5576 10 13.8337C10.0001 14.1099 10.2241 14.3336 10.5002 14.3335L13.4735 14.3321L12.843 17.6653L9.8331 17.6667C9.55696 17.6668 9.33321 17.8908 9.33333 18.1669C9.33346 18.443 9.55743 18.6668 9.83357 18.6667L12.6538 18.6653L12.0087 22.0757C11.9574 22.3471 12.1357 22.6086 12.407 22.66C12.6784 22.7113 12.9399 22.5329 12.9913 22.2616L13.6716 18.6649L17.3209 18.6632L16.6754 22.0757C16.6241 22.3471 16.8024 22.6086 17.0737 22.66C17.3451 22.7113 17.6066 22.5329 17.658 22.2616L18.3387 18.6627L21.5002 18.6612C21.7764 18.6611 22.0001 18.4371 22 18.161C21.9999 17.8848 21.7759 17.6611 21.4998 17.6612L18.5279 17.6626L19.1584 14.3294L22.1669 14.328C22.443 14.3279 22.6668 14.104 22.6667 13.8278C22.6665 13.5517 22.4426 13.3279 22.1664 13.328L19.3476 13.3294L19.9913 9.92627C20.0426 9.65494 19.8643 9.39338 19.593 9.34205C19.3216 9.29073 19.0601 9.46908 19.0087 9.74041L18.3298 13.3298L14.6805 13.3315L15.3246 9.92627ZM14.4913 14.3316L18.1406 14.3299L17.5101 17.6631L13.8608 17.6648L14.4913 14.3316Z" fill="white" fill-opacity="0.16"/>
</svg>
