<svg width="7" height="8" viewBox="0 0 7 8" fill="none" xmlns="http://www.w3.org/2000/svg">
<path d="M4.59653 8L0.768531 5.012V4.04H2.86853C3.29253 4.04 3.63253 3.948 3.88853 3.764C4.15253 3.58 4.32053 3.312 4.39253 2.96H0.768531V2.06H4.39253C4.32053 1.708 4.15253 1.444 3.88853 1.268C3.63253 1.084 3.29253 0.991999 2.86853 0.991999L0.768531 0.98V0.0799997H6.62453V1.004L4.71653 0.991999C4.90053 1.064 5.05253 1.196 5.17253 1.388C5.30053 1.58 5.38853 1.804 5.43653 2.06H6.62453V2.96H5.44853C5.40053 3.328 5.26853 3.656 5.05253 3.944C4.84453 4.232 4.57253 4.46 4.23653 4.628C3.90053 4.796 3.50853 4.884 3.06053 4.892H2.26853L6.37253 8H4.59653Z" fill="#AFAFAF"/>
</svg>
